<?xml version="1.0" encoding="UTF-8" standalone="no"?>
<svg width="30px" height="30px" viewBox="0 0 30 30" version="1.1" xmlns="http://www.w3.org/2000/svg" xmlns:xlink="http://www.w3.org/1999/xlink" xmlns:sketch="http://www.bohemiancoding.com/sketch/ns">
    <!-- Generator: Sketch 3.5.2 (25235) - http://www.bohemiancoding.com/sketch -->
    <title>instagram3</title>
    <desc>Created with Sketch.</desc>
    <defs></defs>
    <g id="Welcome" stroke="none" stroke-width="1" fill="none" fill-rule="evenodd" sketch:type="MSPage">
        <g id="mobile---hero" sketch:type="MSArtboardGroup" transform="translate(-93.000000, -508.000000)" fill="#FFFFFF">
            <g id="instagram3" sketch:type="MSLayerGroup" transform="translate(93.000000, 508.000000)">
                <path d="M28.8756048,1.12463322 C28.1258493,0.374639721 27.2270948,-0.000238017612 26.1802934,-0.000238017612 L4.03442069,-0.000238017612 C2.9871432,-0.000238017612 2.08886473,0.374877739 1.33887123,1.12463322 C0.588877739,1.87438869 0.214,2.77290518 0.214,3.81994465 L0.214,25.9655793 C0.214,27.0126188 0.588877739,27.9111353 1.33887123,28.6608907 C2.08886473,29.4108842 2.98738121,29.786 4.03442069,29.786 L26.1800553,29.786 C27.2268568,29.786 28.1256113,29.4108842 28.8753668,28.6608907 C29.6253603,27.9111353 30,27.0126188 30,25.9655793 L30,3.81994465 C30,2.77266716 29.6253603,1.87462671 28.8756048,1.12463322 L28.8756048,1.12463322 Z M10.9090834,10.7331662 C12.0789399,9.6021065 13.48491,9.03633864 15.1267555,9.03633864 C16.7814539,9.03633864 18.1938504,9.6021065 19.363945,10.7331662 C20.5338016,11.8644639 21.1188488,13.2316371 21.1188488,14.8346857 C21.1188488,16.4374963 20.5338016,17.8049075 19.363945,18.9357291 C18.1938504,20.0670268 16.7816919,20.6327947 15.1267555,20.6327947 C13.48491,20.6327947 12.079178,20.0667888 10.9090834,18.9357291 C9.7389888,17.8046694 9.15394151,16.4374963 9.15394151,14.8346857 C9.15394151,13.2316371 9.7389888,11.8644639 10.9090834,10.7331662 L10.9090834,10.7331662 Z M26.6263384,25.1708385 C26.6263384,25.5066814 26.5097097,25.7877802 26.2771665,26.0141349 C26.0441473,26.2404897 25.7663807,26.353548 25.4429148,26.353548 L4.71324692,26.353548 C4.37716605,26.353548 4.09582923,26.2404897 3.8697125,26.0141349 C3.64335775,25.7882562 3.53029939,25.5066814 3.53029939,25.1708385 L3.53029939,12.6044607 L6.2644077,12.6044607 C6.00592057,13.4189569 5.87667701,14.2658236 5.87667701,15.1448226 C5.87667701,17.6273463 6.78161997,19.744275 8.59150589,21.4960846 C10.4016298,23.2476562 12.579967,24.123799 15.1267555,24.123799 C16.8073978,24.123799 18.3587966,23.7227394 19.7811899,22.9213341 C21.2033451,22.1194527 22.3275023,21.0305221 23.1553275,19.6535903 C23.9829148,18.2766584 24.3965894,16.7735772 24.3965894,15.1448226 C24.3965894,14.2658236 24.2668698,13.4191949 24.0083827,12.6044607 L26.6265764,12.6044607 L26.6265764,25.1708385 L26.6263384,25.1708385 Z M26.6263384,7.85339111 C26.6263384,8.22826885 26.4970948,8.54507029 26.2381316,8.80355741 C25.9796445,9.06228256 25.6630811,9.19152612 25.2879653,9.19152612 L21.9138277,9.19152612 C21.5391879,9.19152612 21.2221485,9.06228256 20.9636614,8.80355741 C20.7051742,8.54507029 20.5759307,8.22826885 20.5759307,7.85339111 L20.5759307,4.65395837 C20.5759307,4.29193358 20.7051742,3.97846438 20.9636614,3.71331276 C21.2221485,3.44839916 21.5391879,3.31582335 21.9138277,3.31582335 L25.2879653,3.31582335 C25.6630811,3.31582335 25.9796445,3.44839916 26.2381316,3.71331276 C26.4970948,3.97846438 26.6263384,4.29193358 26.6263384,4.65395837 L26.6263384,7.85339111 L26.6263384,7.85339111 Z" id="Shape" sketch:type="MSShapeGroup"></path>
            </g>
        </g>
    </g>
</svg>