<?xml version="1.0" encoding="UTF-8" standalone="no"?>
<svg width="45px" height="67px" viewBox="0 0 45 67" version="1.1" xmlns="http://www.w3.org/2000/svg" xmlns:xlink="http://www.w3.org/1999/xlink" xmlns:sketch="http://www.bohemiancoding.com/sketch/ns">
    <!-- Generator: Sketch 3.5.2 (25235) - http://www.bohemiancoding.com/sketch -->
    <title>Shape Copy 2</title>
    <desc>Created with Sketch.</desc>
    <defs></defs>
    <g id="Welcome" stroke="none" stroke-width="1" fill="none" fill-rule="evenodd" sketch:type="MSPage">
        <g id="post-search" sketch:type="MSArtboardGroup" transform="translate(-884.000000, -715.000000)" fill="#7512DD">
            <g id="map25" sketch:type="MSLayerGroup" transform="translate(625.000000, 599.000000)">
                <path d="M296.879805,122.501174 C292.545866,118.166703 287.316094,116 281.190489,116 C275.064884,116 269.835113,118.167235 265.501174,122.501174 C261.167235,126.835113 259,132.064884 259,138.190489 C259,141.340268 259.476643,143.926162 260.429928,145.948702 L276.249576,179.4951 C276.683129,180.448386 277.355004,181.199524 278.2652,181.747982 C279.175397,182.296973 280.150493,182.572 281.191021,182.572 C282.231018,182.572 283.206646,182.296973 284.116842,181.747982 C285.027038,181.199524 285.712744,180.448386 286.175024,179.4951 L301.950518,145.948702 C302.904336,143.926162 303.380979,141.340268 303.380979,138.190489 C303.381511,132.064884 301.214275,126.835645 296.879805,122.501174 L296.879805,122.501174 Z M289.034881,146.035413 C286.868178,148.202116 284.253558,149.285734 281.190489,149.285734 C278.127421,149.285734 275.512801,148.202116 273.345566,146.035413 C271.17833,143.868178 270.094713,141.253558 270.094713,138.190489 C270.094713,135.127953 271.17833,132.512801 273.345566,130.346098 C275.512801,128.178862 278.127953,127.095245 281.190489,127.095245 C284.253558,127.095245 286.868178,128.178862 289.034881,130.346098 C291.202116,132.512801 292.285734,135.127953 292.285734,138.190489 C292.285734,141.253026 291.202116,143.867646 289.034881,146.035413 L289.034881,146.035413 Z" id="Shape-Copy-2" sketch:type="MSShapeGroup"></path>
            </g>
        </g>
    </g>
</svg>