<?xml version="1.0" encoding="UTF-8" standalone="no"?>
<svg width="29px" height="29px" viewBox="0 0 29 29" version="1.1" xmlns="http://www.w3.org/2000/svg" xmlns:xlink="http://www.w3.org/1999/xlink" xmlns:sketch="http://www.bohemiancoding.com/sketch/ns">
    <!-- Generator: Sketch 3.5.2 (25235) - http://www.bohemiancoding.com/sketch -->
    <title>Shape</title>
    <desc>Created with Sketch.</desc>
    <defs></defs>
    <g id="Welcome" stroke="none" stroke-width="1" fill="none" fill-rule="evenodd" sketch:type="MSPage">
        <g id="mobile---hero" sketch:type="MSArtboardGroup" transform="translate(-196.000000, -507.000000)" fill="#FFFFFF">
            <g id="facebook26" sketch:type="MSLayerGroup" transform="translate(196.000000, 507.000000)">
                <path d="M27.4108307,1.70787444 C26.3519999,0.648812851 25.0764641,0.119166667 23.5849159,0.119166667 L5.5342508,0.119166667 C4.04270252,0.119166667 2.76716681,0.648812851 1.70787444,1.70787444 C0.648812851,2.76716681 0.119166667,4.04270252 0.119166667,5.5342508 L0.119166667,23.5846851 C0.119166667,25.0762334 0.648812851,26.3517691 1.70787444,27.4110614 C2.76716681,28.4703538 4.04270252,29 5.5342508,29 L23.5846851,29 C25.0762334,29 26.3517691,28.4703538 27.4105999,27.4110614 C28.4698922,26.3517691 28.9995384,25.0762334 28.9995384,23.5846851 L28.9995384,5.5342508 C28.9995384,4.04270252 28.4698922,2.76693603 27.4108307,1.70787444 L27.4108307,1.70787444 Z M24.6940573,14.9730305 L21.4035582,14.9730305 L21.4035582,26.9125709 L16.4772718,26.9125709 L16.4772718,14.9730305 L14.0141285,14.9730305 L14.0141285,10.8551756 L16.4772718,10.8551756 L16.4772718,8.39203237 C16.4772718,6.62446804 16.8910651,5.28962119 17.7181901,4.38703024 C18.5453151,3.48443929 19.9115484,3.0332592 21.8171208,3.0332592 L25.1076198,3.0332592 L25.1076198,7.15111405 L23.0395765,7.15111405 C22.3375356,7.15111405 21.8893557,7.27319807 21.6950367,7.51782769 C21.5007177,7.76222651 21.4035582,8.19148224 21.4035582,8.80582566 L21.4035582,10.8551756 L25.126544,10.8551756 L24.6940573,14.9730305 L24.6940573,14.9730305 Z" id="Shape" sketch:type="MSShapeGroup"></path>
            </g>
        </g>
    </g>
</svg>