<svg xmlns="http://www.w3.org/2000/svg" xmlns:xlink="http://www.w3.org/1999/xlink" version="1.1" x="0px" y="0px" viewBox="38.974 53.377 113.386 141.7325" enable-background="new 38.974 53.377 113.386 113.386" xml:space="preserve"><g><path d="M123.481,112.771v-31.75c0-0.528-0.283-1.016-0.742-1.276c-0.459-0.264-1.023-0.258-1.477,0.012l-16.391,9.712   c-5.913-2.068-12.494-2.068-18.407,0l-16.392-9.712c-0.455-0.27-1.019-0.276-1.477-0.012c-0.46,0.262-0.742,0.749-0.742,1.277   v31.755c0,15.336,12.477,27.814,27.814,27.814c15.336,0,27.812-12.478,27.814-27.814   C123.481,112.774,123.481,112.773,123.481,112.771z M95.668,137.65c-13.717,0-24.876-11.158-24.876-24.874c0-0.002,0-0.003,0-0.005   V83.599l12.315,7.296c-1.572,0.797-3.069,1.742-4.471,2.829c-0.641,0.497-0.758,1.421-0.26,2.061   c0.29,0.374,0.723,0.569,1.162,0.569c0.314,0,0.631-0.1,0.899-0.309c1.939-1.504,4.08-2.708,6.364-3.58   c0.047-0.017,0.096-0.03,0.142-0.052c5.568-2.086,11.872-2.088,17.447,0c0.04,0.019,0.083,0.03,0.124,0.045   c2.069,0.787,4.026,1.851,5.82,3.163c0.657,0.48,1.577,0.336,2.053-0.319c0.479-0.655,0.337-1.574-0.317-2.053   c-1.218-0.891-2.504-1.677-3.844-2.357l12.314-7.296v29.177c0,0.001,0,0.003,0,0.004C120.54,126.494,109.382,137.65,95.668,137.65z   "/><path d="M108.818,121.173c-0.673-0.456-1.586-0.276-2.04,0.396c-0.986,1.461-2.625,2.332-4.385,2.332   c-2.914,0-5.286-2.37-5.288-5.283c0-0.002,0-0.003,0-0.005s0-0.003,0-0.005v-0.496l4.3-3.684c0.468-0.4,0.636-1.048,0.422-1.625   c-0.212-0.577-0.762-0.96-1.378-0.96h-9.555c-0.615,0-1.165,0.383-1.378,0.96c-0.214,0.576-0.046,1.224,0.422,1.625l4.226,3.622   v0.562l0,0l0,0c0,0.002,0,0.003,0,0.005c-0.003,2.913-2.374,5.283-5.287,5.283c-1.596,0-3.092-0.71-4.1-1.949   c-0.514-0.628-1.436-0.723-2.068-0.211c-0.629,0.513-0.723,1.439-0.211,2.068c1.569,1.926,3.896,3.031,6.379,3.031   c0.158,0,0.312-0.015,0.468-0.024c1.304,2.2,3.708,3.593,6.289,3.593c2.583,0,4.985-1.392,6.288-3.593   c0.156,0.009,0.311,0.024,0.47,0.024c2.738,0,5.288-1.356,6.822-3.627C109.668,122.54,109.491,121.627,108.818,121.173z    M95.635,127.47c-1.242,0-2.414-0.54-3.232-1.436c1.301-0.621,2.416-1.567,3.232-2.742c0.816,1.174,1.931,2.121,3.233,2.742   C98.05,126.93,96.878,127.47,95.635,127.47z"/><circle cx="86.015" cy="107.566" r="2.91"/><circle cx="104.726" cy="107.566" r="2.91"/></g><text x="38.974" y="181.763" fill="#000000" font-size="5px" font-weight="bold" font-family="'Helvetica Neue', Helvetica, Arial-Unicode, Arial, Sans-serif">Created by Vlad Likh</text><text x="38.974" y="186.763" fill="#000000" font-size="5px" font-weight="bold" font-family="'Helvetica Neue', Helvetica, Arial-Unicode, Arial, Sans-serif">from the Noun Project</text></svg>