<?xml version="1.0" encoding="UTF-8" standalone="no"?>
<svg width="39px" height="33px" viewBox="0 0 39 33" version="1.1" xmlns="http://www.w3.org/2000/svg" xmlns:xlink="http://www.w3.org/1999/xlink" xmlns:sketch="http://www.bohemiancoding.com/sketch/ns">
    <!-- Generator: Sketch 3.5.2 (25235) - http://www.bohemiancoding.com/sketch -->
    <title>twitter16</title>
    <desc>Created with Sketch.</desc>
    <defs></defs>
    <g id="Welcome" stroke="none" stroke-width="1" fill="none" fill-rule="evenodd" sketch:type="MSPage">
        <g id="mobile---hero" sketch:type="MSArtboardGroup" transform="translate(-140.000000, -506.000000)" fill="#FFFFFF">
            <g id="twitter16" sketch:type="MSLayerGroup" transform="translate(139.000000, 506.000000)">
                <path d="M39.2908035,4.65611599 C37.7821815,5.30514303 36.2729621,5.71044892 34.7649375,5.87322837 C36.4682975,4.85115264 37.6202981,3.40734375 38.2206406,1.54180168 C36.6627368,2.46620974 34.999997,3.0988095 33.2318239,3.43960096 C31.6742187,1.78492548 29.7602909,0.957289062 27.4888456,0.957289062 C25.3150679,0.957289062 23.4617716,1.72369651 21.9283594,3.2568101 C20.3952458,4.78992368 19.6288383,6.64321995 19.6288383,8.8169976 C19.6288383,9.40091286 19.6936514,10.0012554 19.8235763,10.6177266 C16.6112957,10.4555445 13.5979345,9.64851683 10.7831941,8.19664363 C7.96845373,6.74447175 5.579628,4.8099351 3.61671695,2.39273498 C2.9028768,3.60925 2.54595673,4.931497 2.54595673,6.35917728 C2.54595673,7.70561719 2.86225661,8.95498678 3.49515505,10.1066887 C4.12775481,11.2583906 4.97958413,12.1911617 6.05034435,12.9050018 C4.78484615,12.8563173 3.60058834,12.5235901 2.49757091,11.907119 L2.49757091,12.004488 C2.49757091,13.9025859 3.09373197,15.5692085 4.28605409,17.0052518 C5.4783762,18.4412951 6.98311538,19.345393 8.79997296,19.7184417 C8.1186887,19.8967524 7.42904147,19.9860571 6.73162861,19.9860571 C6.27733954,19.9860571 5.78243029,19.9454369 5.24719952,19.8647939 C5.75017308,21.438229 6.67487981,22.7318029 8.02131971,23.7458143 C9.36775962,24.7601244 10.8928089,25.2828107 12.5961689,25.3156653 C9.74110697,27.5539573 6.48850481,28.673402 2.83836238,28.673402 C2.14065084,28.673402 1.50805108,28.6414435 0.940264423,28.5763317 C4.59040685,30.9284201 8.61359796,32.1043149 13.0101364,32.1043149 C15.8003852,32.1043149 18.4203876,31.6625703 20.8695463,30.7784838 C23.319601,29.8943972 25.4121382,28.7101394 27.1480541,27.2254117 C28.8836713,25.7412812 30.3803462,24.0337398 31.6374814,22.1030859 C32.8946166,20.1727308 33.8312704,18.1572524 34.4480403,16.0563522 C35.0645114,13.9551532 35.372747,11.8506689 35.372747,9.74140565 C35.372747,9.28711659 35.3646827,8.9466238 35.3482554,8.71932993 C36.889732,7.60048257 38.2039147,6.24567969 39.2908035,4.65611599 L39.2908035,4.65611599 Z" id="Shape" sketch:type="MSShapeGroup"></path>
            </g>
        </g>
    </g>
</svg>